<?xml version="1.0" encoding="UTF-8"?>
<svg id="Layer_2" data-name="Layer 2" xmlns="http://www.w3.org/2000/svg" viewBox="0 0 595.28 291.88">
  <defs>
    <style>
      .cls-1 {
        fill: #ee3124;
      }
    </style>
  </defs>
  <g id="Layer_1-2" data-name="Layer 1">
    <g>
      <path class="cls-1" d="M327.48,150.77c-18.15-2.89-34.32,6.03-44.51,21.21l-21.56,45.98-2.74,7.52c-.57,3.64.43,7.22,2.54,10.09,2.13,3.34,5.56,4.82,8.96,6.68l54.2-.13c14.64-2.34,27.52-10.6,35.06-23.45,7.79-12.63,7.47-32.49-.77-44.92-6.4-11.11-19.15-20.83-31.18-22.98M360.81.02s-45.94,98.56-45.04,98.77c37.67-1.25,75.57,23.26,91.64,57.37,12.41,24.72,11.47,62.03-1.21,86.08l108.64-.03c3.17-.09,6.11-1.71,6.77-5.62,1.51-2.3,1.41-6.14.22-8.59-1.45-3.12-4.65-4.62-7.6-5.22l-37.94-.32c-19.25-1.73-38.55-14.29-47.85-32.11-10.67-18.91-8.95-46.72,4.36-63.8,11.55-15.45,28.6-24.74,47.76-25.49l114.73-.03-22.65,49.79h-91.79c-2.92.51-6.14,5.08-7.2,7.82-1.27,2.74-.95,6.12.47,8.57,1.19,2.22,3.72,3.73,6,4.36l40.1-.07c21.96,2.34,42.61,19.03,49.96,40.06,8.01,20.79,3.24,44.63-11.44,60.84-11.41,12.05-25.46,18.75-41.91,19.43H243.55c-17.63-.63-34.63-11.46-42.31-27.75-5.5-11.36-5.96-27.83.06-39.07l35.34-74.29-140.96.09c-3.16.08-6.28,3.87-8,7.08-1.3,2.06-1.43,5.69-.22,8.13,3.62,8.71,14.12,4.35,21.37,5.51,16.7-.22,33.39-.9,46.93,6.86,19.71,10.29,32.43,29.81,33.03,51.94.85,23.01-12.32,44.82-33.05,54.86-6.24,3.11-13.74,5.76-20.95,6.63l-134.8.05,21.66-49.75,108.15.04c2.47-.51,4.57-3.35,5.86-5.87,1.52-2.08,1.42-5.69.45-7.92-3.14-7.82-12.33-5.08-19.12-5.79l-27.8-.38c-22.4-1.87-45.25-19.76-51.7-41.49-6.93-21.95-1.46-45.14,14.36-61.15,11.87-12.07,26.37-18.12,43.53-18.36l163.39-.18L304.24,0l56.57.02Z"/>
      <path class="cls-1" d="M579.01,73.46h2.54c1.38,0,3.11.26,3.11,1.91,0,1.86-1.27,2.12-2.97,2.12h-2.68v-4.02M576.06,86.29h2.95v-6.49h1.9l3.69,6.49h3.1l-4.02-6.63c2.23-.18,3.94-1.26,3.94-4.04,0-3.31-2.11-4.5-5.88-4.5h-5.68v15.16ZM567.52,78.73c0,8.25,6.56,13.56,13.88,13.56s13.84-5.31,13.84-13.56-6.53-13.52-13.84-13.52-13.88,5.3-13.88,13.52ZM571.19,78.73c0-6.17,4.57-10.64,10.21-10.64s10.16,4.47,10.16,10.64-4.59,10.67-10.16,10.67-10.21-4.5-10.21-10.67Z"/>
    </g>
  </g>
</svg>
